<?xml version="1.0" encoding="UTF-8"?>
<svg xmlns="http://www.w3.org/2000/svg" xmlns:xlink="http://www.w3.org/1999/xlink" width="1150pt" height="418pt" viewBox="0 0 1150 418" version="1.1">
<g id="surface1">
<path style=" stroke:none;fill-rule:nonzero;fill:rgb(29.882812%,75.578308%,55.636597%);fill-opacity:1;" d="M 396.988281 209.25 C 396.988281 313.226562 312.695312 397.519531 208.71875 397.519531 C 104.742188 397.519531 20.453125 313.226562 20.453125 209.25 C 20.453125 105.273438 104.742188 20.984375 208.71875 20.984375 C 312.695312 20.984375 396.988281 105.273438 396.988281 209.25 "/>
<path style=" stroke:none;fill-rule:nonzero;fill:rgb(100%,100%,100%);fill-opacity:1;" d="M 302.695312 135.109375 L 302.695312 111.785156 L 278.21875 111.785156 C 258.621094 97.789062 234.632812 89.550781 208.71875 89.550781 C 182.804688 89.550781 158.8125 97.789062 139.222656 111.785156 L 114.742188 111.785156 L 114.742188 135.113281 C 98.636719 155.5 89.019531 181.253906 89.019531 209.25 C 89.019531 250.09375 109.480469 286.148438 140.703125 307.75 C 140.710938 307.742188 140.714844 307.738281 140.71875 307.730469 C 142.679688 309.085938 144.722656 310.339844 146.863281 311.476562 L 208.71875 344.238281 L 270.574219 311.476562 C 272.835938 310.277344 274.996094 308.941406 277.054688 307.496094 C 277.0625 307.503906 277.070312 307.507812 277.074219 307.515625 C 308.105469 285.886719 328.417969 249.941406 328.417969 209.25 C 328.417969 181.253906 318.800781 155.5 302.695312 135.109375 "/>
<path style=" stroke:none;fill-rule:nonzero;fill:rgb(7.206726%,20.443726%,20.835876%);fill-opacity:1;" d="M 209.921875 183.738281 C 209.097656 183.75 208.277344 183.75 207.464844 183.738281 L 207.464844 177.5625 C 207.464844 176.648438 207.730469 175.742188 208.242188 175.003906 C 208.414062 174.738281 208.507812 174.609375 208.691406 174.34375 C 208.867188 174.609375 208.960938 174.738281 209.144531 175.003906 C 209.652344 175.742188 209.921875 176.648438 209.921875 177.5625 Z M 208.691406 192.476562 C 210.535156 193.585938 212.015625 195.128906 213.050781 196.945312 C 214.070312 198.753906 214.636719 200.816406 214.636719 202.972656 L 214.636719 204.882812 C 215.34375 205.414062 215.621094 205.625 216.339844 206.15625 C 218.019531 205.660156 219.652344 205.023438 221.253906 204.234375 C 219.605469 191.570312 218.089844 178.882812 216.605469 166.210938 C 211.335938 165.445312 206.050781 165.445312 200.78125 166.210938 C 199.285156 178.882812 197.765625 191.570312 196.132812 204.234375 C 197.734375 205.023438 199.355469 205.660156 201.046875 206.15625 C 201.753906 205.625 202.042969 205.414062 202.746094 204.882812 L 202.746094 202.972656 C 202.746094 198.671875 205.007812 194.6875 208.691406 192.476562 M 217.441406 211.644531 C 214.878906 211.644531 212.328125 212.308594 209.472656 213.730469 L 209.472656 235.710938 L 210.0625 235.421875 C 212.695312 234.132812 215.109375 233.507812 217.449219 233.507812 C 219.78125 233.507812 222.195312 234.132812 224.824219 235.421875 L 226.765625 236.371094 L 226.765625 214.429688 L 226.046875 214.050781 C 222.929688 212.40625 220.191406 211.644531 217.441406 211.644531 M 207.257812 235.421875 L 207.875 235.722656 L 207.875 213.742188 C 205.003906 212.3125 202.445312 211.644531 199.871094 211.644531 C 197.121094 211.644531 194.390625 212.40625 191.273438 214.050781 L 190.554688 214.433594 L 190.554688 236.371094 L 192.492188 235.421875 C 195.121094 234.132812 197.539062 233.507812 199.875 233.507812 C 202.210938 233.507812 204.628906 234.132812 207.257812 235.421875 M 182.765625 213.417969 L 194.921875 204.253906 L 194.945312 204.085938 C 195.941406 196.382812 196.890625 188.695312 197.765625 181.414062 L 180.441406 194.472656 C 181.167969 200.546875 181.949219 206.9375 182.765625 213.417969 M 168.582031 193.109375 C 168.582031 192.195312 168.847656 191.304688 169.371094 190.550781 C 169.542969 190.285156 169.636719 190.15625 169.808594 189.890625 C 169.996094 190.15625 170.089844 190.285156 170.261719 190.550781 C 170.773438 191.304688 171.050781 192.195312 171.050781 193.109375 L 171.050781 199.289062 C 170.226562 199.300781 169.40625 199.300781 168.582031 199.289062 Z M 161.898438 181.757812 C 160.414062 194.445312 158.898438 207.117188 157.253906 219.78125 C 165.292969 223.722656 174.339844 223.722656 182.371094 219.78125 C 180.734375 207.117188 179.21875 194.445312 177.722656 181.757812 C 172.464844 180.992188 167.167969 180.992188 161.898438 181.757812 M 169.199219 174.453125 C 172.84375 174.390625 176.550781 174.875 180.085938 175.941406 L 180.085938 169.707031 C 178.914062 169.261719 177.742188 168.878906 176.53125 168.558594 C 176.125 169.339844 175.722656 170.128906 175.324219 170.917969 C 174.519531 170.769531 173.703125 170.65625 172.886719 170.570312 C 172.480469 169.644531 172.070312 168.71875 171.660156 167.792969 C 170.425781 167.730469 169.207031 167.730469 167.972656 167.792969 C 167.5625 168.71875 167.152344 169.644531 166.746094 170.570312 C 165.929688 170.65625 165.113281 170.769531 164.308594 170.917969 C 163.910156 170.128906 163.507812 169.339844 163.101562 168.558594 C 161.890625 168.878906 160.71875 169.261719 159.550781 169.707031 L 159.550781 175.941406 C 162.6875 174.992188 165.96875 174.507812 169.199219 174.453125 M 177.730469 180.46875 C 178.496094 179.359375 179.273438 178.261719 180.085938 177.1875 C 173.320312 175.367188 166.3125 175.367188 159.550781 177.1875 C 160.359375 178.261719 161.136719 179.359375 161.90625 180.46875 C 167.171875 179.640625 172.460938 179.640625 177.730469 180.46875 M 198.664062 173.953125 L 196.503906 175.601562 L 195.695312 178.003906 L 193.679688 179.527344 L 192.871094 178.339844 L 190.851562 179.863281 L 190.042969 182.265625 L 188.027344 183.785156 L 187.21875 182.601562 L 185.199219 184.121094 L 184.390625 186.523438 L 182.371094 188.046875 L 181.816406 186.671875 L 179.660156 188.304688 C 179.660156 188.304688 180.164062 192.179688 180.273438 193.09375 L 197.964844 179.757812 C 198.15625 178.183594 198.664062 173.953125 198.664062 173.953125 M 208.074219 158.902344 C 211.714844 158.84375 215.421875 159.324219 218.957031 160.390625 L 218.957031 154.15625 C 217.789062 153.710938 216.613281 153.332031 215.40625 153.011719 C 214.996094 153.792969 214.59375 154.578125 214.199219 155.367188 C 213.390625 155.222656 212.578125 155.105469 211.761719 155.023438 C 211.351562 154.09375 210.945312 153.167969 210.535156 152.242188 C 209.300781 152.179688 208.082031 152.179688 206.84375 152.242188 C 206.433594 153.167969 206.023438 154.09375 205.617188 155.023438 C 204.800781 155.105469 203.988281 155.222656 203.179688 155.367188 C 202.785156 154.578125 202.382812 153.792969 201.972656 153.011719 C 200.765625 153.332031 199.589844 153.710938 198.421875 154.15625 L 198.421875 160.390625 C 201.558594 159.445312 204.839844 158.957031 208.074219 158.902344 M 216.601562 164.917969 C 217.367188 163.8125 218.148438 162.714844 218.957031 161.640625 C 212.191406 159.820312 205.1875 159.820312 198.421875 161.640625 C 199.234375 162.714844 200.011719 163.8125 200.777344 164.917969 C 206.042969 164.089844 211.335938 164.089844 216.601562 164.917969 M 237.742188 188.304688 L 235.585938 186.671875 L 235.027344 188.046875 L 233.011719 186.523438 L 232.203125 184.121094 L 230.183594 182.601562 L 229.378906 183.785156 L 227.359375 182.265625 L 226.550781 179.863281 L 224.53125 178.339844 L 223.722656 179.527344 L 221.707031 178.003906 L 220.898438 175.601562 L 218.738281 173.953125 C 218.738281 173.953125 219.246094 178.183594 219.4375 179.757812 L 237.128906 193.09375 C 237.238281 192.179688 237.742188 188.304688 237.742188 188.304688 M 248.199219 174.453125 C 251.433594 174.507812 254.714844 174.992188 257.851562 175.941406 L 257.851562 169.707031 C 256.683594 169.261719 255.511719 168.878906 254.300781 168.558594 C 253.894531 169.339844 253.492188 170.128906 253.09375 170.917969 C 252.285156 170.769531 251.472656 170.65625 250.65625 170.570312 C 250.25 169.644531 249.839844 168.71875 249.429688 167.792969 C 248.195312 167.730469 246.976562 167.730469 245.742188 167.792969 C 245.332031 168.71875 244.921875 169.644531 244.515625 170.570312 C 243.699219 170.65625 242.882812 170.769531 242.078125 170.917969 C 241.679688 170.128906 241.277344 169.339844 240.871094 168.558594 C 239.660156 168.878906 238.488281 169.261719 237.316406 169.707031 L 237.316406 175.941406 C 240.851562 174.875 244.558594 174.390625 248.199219 174.453125 M 255.5 180.46875 C 256.265625 179.359375 257.042969 178.261719 257.851562 177.1875 C 251.089844 175.367188 244.082031 175.367188 237.316406 177.1875 C 238.128906 178.261719 238.90625 179.359375 239.671875 180.46875 C 244.941406 179.640625 250.230469 179.640625 255.5 180.46875 M 246.355469 193.109375 C 246.355469 192.195312 246.625 191.304688 247.132812 190.550781 C 247.320312 190.285156 247.402344 190.15625 247.585938 189.890625 C 247.761719 190.15625 247.851562 190.285156 248.035156 190.550781 C 248.546875 191.304688 248.816406 192.195312 248.816406 193.109375 L 248.816406 199.289062 C 247.992188 199.300781 247.179688 199.300781 246.355469 199.289062 Z M 239.671875 181.757812 C 238.1875 194.445312 236.660156 207.117188 235.027344 219.78125 C 243.054688 223.722656 252.117188 223.722656 260.144531 219.78125 C 258.511719 207.117188 256.980469 194.445312 255.5 181.757812 C 250.226562 180.992188 244.945312 180.992188 239.671875 181.757812 M 222.480469 204.253906 L 234.636719 213.417969 C 235.453125 206.9375 236.234375 200.546875 236.960938 194.472656 L 219.636719 181.414062 C 220.511719 188.695312 221.460938 196.382812 222.457031 204.085938 Z M 208.699219 239.589844 L 211.070312 241.289062 L 226.835938 241.289062 L 229.683594 239.8125 L 229.683594 219.886719 L 228.113281 218.3125 L 228.113281 238.53125 L 224.234375 236.632812 C 221.792969 235.433594 219.574219 234.855469 217.449219 234.855469 C 215.320312 234.855469 213.097656 235.433594 210.652344 236.632812 L 208.660156 237.609375 L 206.664062 236.632812 C 204.222656 235.433594 202.003906 234.851562 199.875 234.851562 C 197.75 234.851562 195.527344 235.433594 193.085938 236.632812 L 189.207031 238.53125 L 189.207031 218.109375 L 187.71875 219.859375 L 187.71875 239.8125 L 190.566406 241.289062 L 206.332031 241.289062 Z M 290.011719 246.117188 C 290.011719 249.246094 287.476562 251.792969 284.335938 251.792969 C 281.195312 251.792969 278.660156 249.246094 278.660156 246.117188 C 278.660156 242.976562 281.195312 240.441406 284.335938 240.441406 C 287.476562 240.441406 290.011719 242.976562 290.011719 246.117188 M 290.011719 207.789062 C 290.011719 210.929688 287.476562 213.46875 284.335938 213.46875 C 281.195312 213.46875 278.660156 210.929688 278.660156 207.789062 C 278.660156 204.660156 281.195312 202.113281 284.335938 202.113281 C 287.476562 202.113281 290.011719 204.660156 290.011719 207.789062 M 290.011719 169.476562 C 290.011719 172.605469 287.476562 175.152344 284.335938 175.152344 C 281.195312 175.152344 278.660156 172.605469 278.660156 169.476562 C 278.660156 166.335938 281.195312 163.800781 284.335938 163.800781 C 287.476562 163.800781 290.011719 166.335938 290.011719 169.476562 M 290.011719 130.085938 C 290.011719 133.226562 287.476562 135.761719 284.335938 135.761719 C 281.195312 135.761719 278.660156 133.226562 278.660156 130.085938 C 278.660156 126.957031 281.195312 124.40625 284.335938 124.40625 C 287.476562 124.40625 290.011719 126.957031 290.011719 130.085938 M 278.566406 274.652344 C 281.707031 274.652344 284.242188 277.191406 284.242188 280.328125 C 284.242188 283.457031 281.707031 286.007812 278.566406 286.007812 C 275.4375 286.007812 272.898438 283.457031 272.898438 280.328125 C 272.898438 277.191406 275.4375 274.652344 278.566406 274.652344 M 272.007812 258.433594 C 272.007812 263.832031 270.535156 269.125 267.757812 273.761719 C 264.976562 278.382812 260.976562 282.160156 256.203125 284.683594 L 254.941406 285.355469 L 230.878906 272.367188 L 272.007812 250.207031 Z M 272.007812 226.257812 L 208.726562 260.402344 L 145.421875 226.164062 L 145.421875 142.796875 L 272.007812 142.796875 Z M 239.464844 130.085938 C 239.464844 133.226562 236.914062 135.761719 233.785156 135.761719 C 230.648438 135.761719 228.109375 133.226562 228.109375 130.085938 C 228.109375 126.957031 230.648438 124.40625 233.785156 124.40625 C 236.914062 124.40625 239.464844 126.957031 239.464844 130.085938 M 188.902344 130.085938 C 188.902344 133.226562 186.367188 135.761719 183.226562 135.761719 C 180.097656 135.761719 177.5625 133.226562 177.5625 130.085938 C 177.5625 126.957031 180.097656 124.40625 183.226562 124.40625 C 186.367188 124.40625 188.902344 126.957031 188.902344 130.085938 M 144.566406 280.203125 C 144.566406 283.339844 142.027344 285.878906 138.886719 285.878906 C 135.75 285.878906 133.210938 283.339844 133.210938 280.203125 C 133.210938 277.074219 135.75 274.535156 138.886719 274.535156 C 142.027344 274.535156 144.566406 277.074219 144.566406 280.203125 M 138.355469 130.085938 C 138.355469 133.226562 135.820312 135.761719 132.679688 135.761719 C 129.550781 135.761719 127.003906 133.226562 127.003906 130.085938 C 127.003906 126.957031 129.550781 124.40625 132.679688 124.40625 C 135.820312 124.40625 138.355469 126.957031 138.355469 130.085938 M 126.828125 169.359375 C 126.828125 166.222656 129.363281 163.683594 132.503906 163.683594 C 135.632812 163.683594 138.183594 166.222656 138.183594 169.359375 C 138.183594 172.488281 135.632812 175.027344 132.503906 175.027344 C 129.363281 175.027344 126.828125 172.488281 126.828125 169.359375 M 126.828125 207.675781 C 126.828125 204.535156 129.363281 201.996094 132.503906 201.996094 C 135.632812 201.996094 138.183594 204.535156 138.183594 207.675781 C 138.183594 210.816406 135.632812 213.351562 132.503906 213.351562 C 129.363281 213.351562 126.828125 210.816406 126.828125 207.675781 M 126.828125 246 C 126.828125 242.859375 129.363281 240.324219 132.503906 240.324219 C 135.632812 240.324219 138.183594 242.859375 138.183594 246 C 138.183594 249.128906 135.632812 251.664062 132.503906 251.664062 C 129.363281 251.664062 126.828125 249.128906 126.828125 246 M 145.421875 250.101562 L 186.585938 272.367188 L 162.5 285.355469 L 161.226562 284.683594 C 156.464844 282.160156 152.46875 278.382812 149.6875 273.761719 C 146.894531 269.125 145.421875 263.832031 145.421875 258.433594 Z M 164.875 304.242188 C 164.875 301.101562 167.410156 298.566406 170.550781 298.566406 C 173.679688 298.566406 176.230469 301.101562 176.230469 304.242188 C 176.230469 307.371094 173.679688 309.917969 170.550781 309.917969 C 167.410156 309.917969 164.875 307.371094 164.875 304.242188 M 184.871094 297.210938 L 208.726562 284.339844 L 232.570312 297.210938 L 208.714844 309.839844 Z M 202.746094 322.894531 C 202.746094 319.757812 205.285156 317.21875 208.414062 317.21875 C 211.554688 317.21875 214.09375 319.757812 214.09375 322.894531 C 214.09375 326.035156 211.554688 328.570312 208.414062 328.570312 C 205.285156 328.570312 202.746094 326.035156 202.746094 322.894531 M 240.785156 304.324219 C 240.785156 301.195312 243.332031 298.65625 246.460938 298.65625 C 249.601562 298.65625 252.140625 301.195312 252.140625 304.324219 C 252.140625 307.464844 249.601562 310 246.460938 310 C 243.332031 310 240.785156 307.464844 240.785156 304.324219 M 297.726562 258.433594 L 297.726562 117.074219 L 119.714844 117.074219 L 119.714844 258.433594 C 119.714844 278.960938 131.054688 297.800781 149.1875 307.417969 L 208.714844 338.941406 L 268.242188 307.417969 C 286.386719 297.800781 297.726562 278.960938 297.726562 258.433594 "/>
<path style=" stroke:none;fill-rule:nonzero;fill:rgb(7.206726%,20.443726%,20.835876%);fill-opacity:1;" d="M 65.066406 202.546875 C 64.988281 204.1875 64.546875 205.640625 63.738281 206.910156 C 62.929688 208.179688 61.859375 209.164062 60.53125 209.855469 C 59.199219 210.554688 57.714844 210.863281 56.078125 210.785156 L 42.589844 210.148438 L 42.757812 206.574219 L 56.21875 207.210938 C 57.273438 207.257812 58.203125 207.078125 59 206.671875 C 59.796875 206.261719 60.425781 205.683594 60.886719 204.9375 C 61.347656 204.191406 61.601562 203.339844 61.648438 202.386719 C 61.691406 201.414062 61.519531 200.542969 61.128906 199.777344 C 60.742188 199.011719 60.167969 198.390625 59.410156 197.921875 C 58.65625 197.449219 57.757812 197.1875 56.722656 197.140625 L 43.230469 196.503906 L 43.402344 192.929688 L 56.921875 193.566406 C 58.558594 193.644531 60 194.085938 61.253906 194.890625 C 62.503906 195.699219 63.46875 196.761719 64.15625 198.082031 C 64.839844 199.402344 65.144531 200.890625 65.066406 202.546875 M 70.835938 166.476562 L 49.679688 161.289062 L 48.828125 164.765625 L 63.429688 168.34375 L 46.089844 175.945312 L 45.496094 178.363281 L 66.652344 183.550781 L 67.503906 180.074219 L 52.902344 176.496094 L 70.242188 168.890625 Z M 75.023438 155.457031 L 54.914062 147.089844 L 56.289062 143.785156 L 76.398438 152.15625 Z M 70.820312 116.449219 L 68.882812 119.75 L 79.429688 133.183594 L 62.582031 130.484375 L 60.617188 133.839844 L 83.859375 137.269531 L 85.121094 135.121094 Z M 103.621094 110.273438 L 101.125 108.164062 L 93.988281 116.636719 L 89.179688 112.589844 L 95.636719 104.925781 L 93.230469 102.898438 L 86.777344 110.5625 L 82.324219 106.8125 L 89.363281 98.460938 L 86.867188 96.355469 L 77.523438 107.445312 L 94.179688 121.480469 Z M 121.210938 94.605469 L 124.710938 91.761719 L 112.921875 89.394531 C 113.730469 88.648438 114.34375 87.835938 114.742188 86.953125 C 115.21875 85.898438 115.386719 84.824219 115.238281 83.742188 C 115.09375 82.65625 114.621094 81.625 113.820312 80.640625 C 113.0625 79.710938 112.164062 79.058594 111.125 78.6875 C 110.085938 78.3125 108.992188 78.242188 107.839844 78.46875 C 106.6875 78.695312 105.582031 79.242188 104.519531 80.105469 L 98.195312 85.253906 L 111.941406 102.148438 L 114.71875 99.890625 L 108.886719 92.722656 L 109.601562 92.140625 Z M 102.933594 85.40625 L 106.363281 82.621094 C 107.214844 81.925781 108.070312 81.628906 108.933594 81.734375 C 109.789062 81.835938 110.507812 82.242188 111.085938 82.949219 C 111.726562 83.738281 111.988281 84.546875 111.875 85.375 C 111.761719 86.203125 111.277344 86.964844 110.421875 87.660156 L 107.019531 90.429688 Z M 138.152344 83.933594 C 136.648438 84.773438 135.222656 85.21875 133.867188 85.261719 C 132.515625 85.308594 131.128906 85.035156 129.707031 84.453125 L 130.640625 81.148438 C 131.589844 81.617188 132.546875 81.859375 133.507812 81.878906 C 134.46875 81.898438 135.511719 81.597656 136.636719 80.96875 C 137.683594 80.378906 138.402344 79.691406 138.78125 78.910156 C 139.164062 78.125 139.140625 77.351562 138.714844 76.59375 C 138.359375 75.960938 137.910156 75.535156 137.359375 75.320312 C 136.8125 75.105469 136.195312 75.015625 135.515625 75.050781 C 134.835938 75.085938 134.113281 75.179688 133.355469 75.332031 C 132.597656 75.484375 131.820312 75.609375 131.03125 75.703125 C 130.242188 75.804688 129.46875 75.800781 128.714844 75.703125 C 127.957031 75.605469 127.238281 75.328125 126.558594 74.875 C 125.875 74.425781 125.261719 73.710938 124.714844 72.734375 C 124.085938 71.613281 123.828125 70.503906 123.941406 69.40625 C 124.050781 68.308594 124.460938 67.289062 125.167969 66.347656 C 125.875 65.402344 126.808594 64.605469 127.96875 63.960938 C 129.21875 63.257812 130.472656 62.878906 131.730469 62.816406 C 132.992188 62.75 134.140625 62.925781 135.183594 63.34375 L 134.25 66.644531 C 133.363281 66.335938 132.542969 66.195312 131.785156 66.226562 C 131.03125 66.257812 130.273438 66.484375 129.511719 66.90625 C 128.570312 67.4375 127.941406 68.039062 127.617188 68.71875 C 127.300781 69.398438 127.332031 70.082031 127.714844 70.769531 C 128.039062 71.347656 128.464844 71.722656 128.988281 71.894531 C 129.511719 72.0625 130.109375 72.121094 130.777344 72.066406 C 131.449219 72.011719 132.167969 71.914062 132.929688 71.773438 C 133.695312 71.628906 134.476562 71.511719 135.269531 71.425781 C 136.0625 71.335938 136.847656 71.355469 137.617188 71.480469 C 138.390625 71.609375 139.128906 71.914062 139.828125 72.402344 C 140.53125 72.890625 141.164062 73.640625 141.730469 74.65625 C 142.683594 76.355469 142.839844 78.042969 142.191406 79.710938 C 141.546875 81.382812 140.199219 82.789062 138.152344 83.933594 M 155.15625 75.429688 L 147.289062 55.117188 L 150.628906 53.824219 L 158.492188 74.136719 Z M 179.429688 48.976562 L 178.664062 45.796875 L 161.390625 49.960938 L 162.15625 53.136719 L 169.054688 51.476562 L 173.390625 69.476562 L 176.871094 68.636719 L 172.53125 50.636719 Z M 206.800781 43.015625 L 202.734375 43.300781 L 197.710938 52.582031 L 191.433594 44.097656 L 187.308594 44.386719 L 196.148438 56.097656 L 196.816406 65.554688 L 200.386719 65.300781 L 199.710938 55.710938 Z M 236.121094 68.042969 C 234.59375 67.746094 233.226562 67.183594 232.011719 66.355469 C 230.800781 65.527344 229.792969 64.511719 228.992188 63.308594 C 228.1875 62.109375 227.636719 60.785156 227.335938 59.34375 C 227.035156 57.898438 227.035156 56.414062 227.332031 54.886719 C 227.628906 53.359375 228.1875 51.988281 229.003906 50.773438 C 229.820312 49.5625 230.824219 48.546875 232.007812 47.730469 C 233.191406 46.914062 234.492188 46.351562 235.914062 46.050781 C 237.339844 45.746094 238.8125 45.742188 240.339844 46.039062 C 241.867188 46.335938 243.234375 46.894531 244.4375 47.710938 C 245.644531 48.523438 246.644531 49.53125 247.449219 50.734375 C 248.25 51.9375 248.800781 53.261719 249.101562 54.703125 C 249.402344 56.144531 249.402344 57.628906 249.105469 59.15625 C 248.808594 60.683594 248.25 62.058594 247.429688 63.285156 C 246.609375 64.507812 245.609375 65.523438 244.429688 66.328125 C 243.246094 67.136719 241.941406 67.695312 240.519531 68.011719 C 239.09375 68.324219 237.628906 68.335938 236.121094 68.042969 M 236.714844 64.671875 C 238.160156 64.953125 239.492188 64.875 240.707031 64.433594 C 241.921875 63.996094 242.953125 63.257812 243.800781 62.230469 C 244.644531 61.199219 245.214844 59.933594 245.507812 58.425781 C 245.726562 57.304688 245.746094 56.246094 245.570312 55.25 C 245.394531 54.253906 245.046875 53.351562 244.527344 52.542969 C 244.007812 51.734375 243.34375 51.058594 242.527344 50.519531 C 241.714844 49.984375 240.765625 49.609375 239.6875 49.398438 C 238.261719 49.121094 236.941406 49.195312 235.726562 49.625 C 234.511719 50.054688 233.484375 50.78125 232.640625 51.800781 C 231.800781 52.820312 231.230469 54.082031 230.9375 55.589844 C 230.71875 56.710938 230.695312 57.777344 230.867188 58.796875 C 231.039062 59.808594 231.382812 60.71875 231.894531 61.511719 C 232.402344 62.308594 233.070312 62.984375 233.890625 63.535156 C 234.714844 64.085938 235.65625 64.464844 236.714844 64.671875 M 276.738281 61.296875 L 277.964844 58.265625 L 264.921875 53 L 256.765625 73.195312 L 260.085938 74.539062 L 263.578125 65.882812 L 272.8125 69.609375 L 274.035156 66.582031 L 264.804688 62.851562 L 267.015625 57.371094 Z M 305.800781 89.851562 L 307.671875 87.324219 L 299.621094 81.359375 L 303.085938 76.683594 L 311.859375 83.1875 L 313.804688 80.5625 L 302.15625 71.929688 L 289.1875 89.433594 L 300.964844 98.15625 L 302.910156 95.53125 L 294.007812 88.9375 L 297.75 83.886719 Z M 334.40625 100.710938 L 324.710938 102.136719 L 326.777344 92.464844 L 323.90625 89.355469 L 321.261719 102.121094 L 307.664062 103.878906 L 310.390625 106.824219 L 321.089844 105.386719 L 318.566406 115.664062 L 321.398438 118.722656 L 324.523438 105.414062 L 337.136719 103.65625 Z M 336.890625 124.316406 L 342.234375 132.792969 L 344.894531 131.117188 L 339.546875 122.640625 L 344.46875 119.535156 L 350.296875 128.773438 L 353.0625 127.03125 L 345.320312 114.765625 L 326.902344 126.390625 L 334.722656 138.785156 L 337.484375 137.039062 L 331.574219 127.671875 Z M 362.46875 155.390625 L 365.488281 154.140625 L 358.699219 137.722656 L 355.679688 138.96875 L 358.390625 145.527344 L 341.28125 152.601562 L 342.648438 155.910156 L 359.757812 148.835938 Z M 352.113281 174.785156 L 358.253906 173.445312 L 360.390625 183.234375 L 363.460938 182.566406 L 361.324219 172.777344 L 367.007812 171.535156 L 369.335938 182.207031 L 372.53125 181.511719 L 369.4375 167.34375 L 348.15625 171.984375 L 351.28125 186.304688 L 354.472656 185.609375 Z M 374.316406 195.949219 L 352.546875 196.710938 L 352.671875 200.285156 L 361.910156 199.964844 L 361.941406 200.886719 L 352.964844 208.652344 L 353.125 213.160156 L 362.125 205.191406 C 362.234375 206.285156 362.507812 207.265625 362.972656 208.117188 C 363.527344 209.132812 364.28125 209.910156 365.234375 210.449219 C 366.1875 210.984375 367.296875 211.234375 368.5625 211.1875 C 369.761719 211.148438 370.824219 210.824219 371.75 210.222656 C 372.671875 209.617188 373.390625 208.789062 373.902344 207.730469 C 374.414062 206.675781 374.648438 205.464844 374.601562 204.097656 Z M 370.644531 206.632812 C 370.042969 207.257812 369.285156 207.582031 368.375 207.613281 C 367.355469 207.652344 366.554688 207.371094 365.960938 206.78125 C 365.371094 206.1875 365.054688 205.34375 365.015625 204.246094 L 364.863281 199.859375 L 371.332031 199.632812 L 371.484375 204.050781 C 371.523438 205.148438 371.242188 206.011719 370.644531 206.632812 M 54.917969 239.695312 C 54.789062 239.042969 54.90625 238.46875 55.257812 237.964844 C 55.613281 237.457031 56.109375 237.144531 56.738281 237.019531 C 57.390625 236.890625 57.972656 236.992188 58.480469 237.328125 C 58.992188 237.660156 59.308594 238.152344 59.4375 238.804688 C 59.566406 239.453125 59.457031 240.03125 59.113281 240.53125 C 58.769531 241.035156 58.269531 241.351562 57.621094 241.480469 C 56.988281 241.601562 56.414062 241.5 55.894531 241.167969 C 55.375 240.839844 55.046875 240.347656 54.917969 239.695312 M 75.28125 263.726562 L 73.863281 260.4375 L 53.863281 269.0625 L 59.34375 281.777344 L 62.34375 280.484375 L 58.28125 271.054688 Z M 69.898438 300.589844 C 68.996094 299.21875 68.5 297.785156 68.40625 296.28125 C 68.3125 294.777344 68.601562 293.355469 69.265625 292.011719 C 69.933594 290.664062 70.953125 289.542969 72.324219 288.644531 L 83.609375 281.226562 L 85.574219 284.21875 L 74.316406 291.617188 C 73.429688 292.199219 72.785156 292.886719 72.382812 293.6875 C 71.976562 294.488281 71.804688 295.324219 71.871094 296.199219 C 71.9375 297.074219 72.234375 297.914062 72.757812 298.710938 C 73.292969 299.523438 73.941406 300.128906 74.710938 300.519531 C 75.472656 300.910156 76.300781 301.070312 77.191406 301.011719 C 78.078125 300.945312 78.960938 300.628906 79.824219 300.0625 L 91.113281 292.644531 L 93.078125 295.636719 L 81.765625 303.066406 C 80.394531 303.96875 78.96875 304.460938 77.480469 304.539062 C 75.996094 304.621094 74.589844 304.332031 73.261719 303.667969 C 71.929688 303.003906 70.808594 301.976562 69.898438 300.589844 M 91.183594 326.789062 C 90.082031 325.660156 89.269531 324.421875 88.738281 323.066406 C 88.210938 321.710938 87.96875 320.320312 88.003906 318.886719 C 88.042969 317.460938 88.355469 316.074219 88.949219 314.738281 C 89.546875 313.402344 90.398438 312.191406 91.511719 311.105469 C 92.621094 310.015625 93.851562 309.1875 95.199219 308.621094 C 96.550781 308.058594 97.933594 307.777344 99.359375 307.777344 C 100.78125 307.777344 102.167969 308.054688 103.519531 308.605469 C 104.871094 309.15625 106.097656 309.992188 107.199219 311.121094 C 108.433594 312.378906 109.289062 313.675781 109.777344 315 C 110.261719 316.324219 110.496094 317.691406 110.480469 319.101562 L 107.046875 319.0625 C 107.101562 318.109375 106.945312 317.164062 106.582031 316.230469 C 106.21875 315.292969 105.609375 314.390625 104.753906 313.515625 C 103.996094 312.742188 103.175781 312.171875 102.285156 311.792969 C 101.394531 311.414062 100.472656 311.238281 99.519531 311.257812 C 98.566406 311.277344 97.621094 311.492188 96.695312 311.910156 C 95.765625 312.324219 94.894531 312.929688 94.078125 313.730469 C 93.261719 314.527344 92.636719 315.386719 92.203125 316.304688 C 91.765625 317.226562 91.527344 318.160156 91.488281 319.113281 C 91.449219 320.066406 91.609375 320.992188 91.964844 321.890625 C 92.320312 322.789062 92.878906 323.625 93.632812 324.394531 C 94.5625 325.34375 95.492188 326.007812 96.429688 326.386719 C 97.363281 326.761719 98.304688 326.933594 99.261719 326.898438 L 99.222656 330.332031 C 97.800781 330.332031 96.410156 330.050781 95.050781 329.492188 C 93.695312 328.9375 92.402344 328.035156 91.183594 326.789062 M 130.449219 334.382812 L 132.320312 331.707031 L 120.445312 323.390625 L 107.953125 341.234375 L 119.957031 349.640625 L 121.832031 346.964844 L 112.757812 340.609375 L 116.363281 335.460938 L 124.570312 341.207031 L 126.371094 338.632812 L 118.164062 332.886719 L 121.503906 328.121094 Z M 158.691406 344.644531 L 145.714844 353.800781 L 143.570312 338.066406 L 141.285156 337.074219 L 132.597656 357.046875 L 135.878906 358.476562 L 141.441406 345.683594 L 142.988281 356.953125 L 145.269531 357.945312 L 154.566406 351.394531 L 149.003906 364.183594 L 152.285156 365.613281 L 160.976562 345.636719 Z M 188.894531 374.269531 C 187.1875 374.066406 185.769531 373.585938 184.648438 372.820312 C 183.527344 372.0625 182.566406 371.027344 181.761719 369.71875 L 184.460938 367.597656 C 184.953125 368.53125 185.585938 369.292969 186.351562 369.878906 C 187.117188 370.460938 188.136719 370.824219 189.414062 370.980469 C 190.609375 371.121094 191.59375 370.988281 192.363281 370.578125 C 193.132812 370.167969 193.570312 369.53125 193.671875 368.667969 C 193.757812 367.945312 193.644531 367.335938 193.328125 366.839844 C 193.011719 366.34375 192.566406 365.90625 191.992188 365.535156 C 191.421875 365.164062 190.785156 364.816406 190.082031 364.492188 C 189.378906 364.171875 188.679688 363.8125 187.984375 363.425781 C 187.285156 363.039062 186.664062 362.585938 186.109375 362.058594 C 185.554688 361.535156 185.136719 360.886719 184.851562 360.121094 C 184.570312 359.355469 184.492188 358.417969 184.625 357.308594 C 184.777344 356.027344 185.222656 354.980469 185.957031 354.15625 C 186.691406 353.339844 187.625 352.757812 188.753906 352.410156 C 189.878906 352.0625 191.105469 351.96875 192.421875 352.128906 C 193.84375 352.296875 195.082031 352.726562 196.136719 353.417969 C 197.195312 354.109375 198.019531 354.925781 198.617188 355.878906 L 195.917969 357.996094 C 195.386719 357.226562 194.804688 356.628906 194.175781 356.207031 C 193.546875 355.785156 192.796875 355.523438 191.933594 355.421875 C 190.863281 355.292969 189.996094 355.410156 189.339844 355.769531 C 188.679688 356.128906 188.304688 356.699219 188.210938 357.484375 C 188.128906 358.144531 188.253906 358.695312 188.574219 359.140625 C 188.898438 359.589844 189.34375 359.984375 189.921875 360.335938 C 190.496094 360.6875 191.132812 361.03125 191.835938 361.363281 C 192.535156 361.699219 193.234375 362.0625 193.929688 362.460938 C 194.621094 362.859375 195.242188 363.335938 195.792969 363.890625 C 196.34375 364.449219 196.757812 365.128906 197.039062 365.9375 C 197.316406 366.742188 197.390625 367.722656 197.25 368.875 C 197.019531 370.8125 196.152344 372.265625 194.644531 373.234375 C 193.140625 374.203125 191.222656 374.550781 188.894531 374.269531 M 225.328125 374.535156 L 225.15625 371.273438 L 214.09375 371.847656 L 213.769531 365.570312 L 223.777344 365.050781 L 223.613281 361.910156 L 213.605469 362.429688 L 213.304688 356.621094 L 224.210938 356.054688 L 224.042969 352.789062 L 209.5625 353.542969 L 210.691406 375.296875 Z M 260.785156 366.417969 L 256.667969 363.960938 C 256.996094 363.144531 257.242188 362.289062 257.378906 361.386719 C 257.597656 359.933594 257.515625 358.449219 257.136719 356.941406 C 256.753906 355.433594 256.121094 354.089844 255.234375 352.910156 C 254.347656 351.734375 253.285156 350.773438 252.046875 350.027344 C 250.808594 349.28125 249.472656 348.796875 248.035156 348.570312 C 246.597656 348.34375 245.128906 348.421875 243.617188 348.804688 C 242.109375 349.1875 240.777344 349.820312 239.621094 350.699219 C 238.464844 351.582031 237.523438 352.640625 236.800781 353.882812 C 236.074219 355.128906 235.601562 356.472656 235.378906 357.917969 C 235.15625 359.367188 235.238281 360.84375 235.617188 362.351562 C 236 363.859375 236.632812 365.203125 237.519531 366.382812 C 238.40625 367.558594 239.46875 368.519531 240.707031 369.265625 C 241.941406 370.011719 243.285156 370.503906 244.738281 370.734375 C 246.1875 370.96875 247.664062 370.890625 249.175781 370.511719 C 250.660156 370.132812 251.984375 369.5 253.136719 368.609375 C 253.847656 368.0625 254.464844 367.441406 255.011719 366.765625 L 259.117188 369.214844 Z M 251.785156 365.292969 C 250.871094 366.207031 249.703125 366.84375 248.273438 367.207031 C 247.226562 367.472656 246.21875 367.53125 245.238281 367.378906 C 244.257812 367.234375 243.367188 366.90625 242.566406 366.40625 C 241.765625 365.902344 241.070312 365.226562 240.480469 364.378906 C 239.894531 363.535156 239.457031 362.558594 239.179688 361.449219 C 238.800781 359.964844 238.777344 358.578125 239.105469 357.296875 C 239.433594 356.015625 240.058594 354.921875 240.972656 354.015625 C 241.886719 353.109375 243.050781 352.480469 244.457031 352.125 C 245.523438 351.851562 246.539062 351.789062 247.507812 351.929688 C 248.472656 352.070312 249.363281 352.394531 250.175781 352.90625 C 250.992188 353.417969 251.6875 354.085938 252.273438 354.910156 C 252.855469 355.738281 253.289062 356.703125 253.570312 357.8125 C 253.945312 359.300781 253.96875 360.6875 253.644531 361.980469 C 253.632812 362.03125 253.609375 362.078125 253.597656 362.132812 L 248.878906 359.320312 L 247.210938 362.117188 L 252.042969 364.996094 C 251.953125 365.09375 251.878906 365.199219 251.785156 365.292969 M 281.304688 358.800781 C 279.832031 359.519531 278.34375 359.828125 276.839844 359.726562 C 275.339844 359.625 273.964844 359.160156 272.714844 358.324219 C 271.46875 357.488281 270.488281 356.335938 269.769531 354.863281 L 263.863281 342.714844 L 267.082031 341.148438 L 272.972656 353.269531 C 273.4375 354.21875 274.039062 354.949219 274.78125 355.453125 C 275.519531 355.957031 276.328125 356.230469 277.207031 356.277344 C 278.082031 356.324219 278.949219 356.140625 279.808594 355.722656 C 280.683594 355.296875 281.367188 354.730469 281.851562 354.019531 C 282.339844 353.3125 282.605469 352.511719 282.65625 351.621094 C 282.710938 350.730469 282.507812 349.820312 282.054688 348.886719 L 276.148438 336.742188 L 279.367188 335.175781 L 285.285156 347.347656 C 286.003906 348.824219 286.308594 350.304688 286.199219 351.785156 C 286.089844 353.269531 285.617188 354.628906 284.789062 355.863281 C 283.960938 357.097656 282.796875 358.074219 281.304688 358.800781 M 301.4375 346.855469 L 289.089844 328.910156 L 292.035156 326.882812 L 304.386719 344.824219 Z M 332.109375 320.757812 L 316.941406 305.125 L 315.15625 306.859375 L 318.6875 322.34375 L 303.316406 318.339844 L 301.53125 320.074219 L 316.699219 335.710938 L 319.265625 333.21875 L 309.554688 323.203125 L 320.5625 326.0625 L 322.351562 324.328125 L 319.828125 313.238281 L 329.539062 323.25 Z M 346.941406 301.675781 C 346.03125 303.039062 344.902344 304.054688 343.554688 304.726562 C 342.207031 305.398438 340.785156 305.6875 339.285156 305.597656 C 337.789062 305.507812 336.355469 305.007812 334.992188 304.09375 L 323.765625 296.589844 L 325.753906 293.613281 L 336.957031 301.105469 C 337.835938 301.691406 338.722656 302.015625 339.617188 302.074219 C 340.511719 302.136719 341.351562 301.96875 342.128906 301.566406 C 342.910156 301.164062 343.566406 300.566406 344.097656 299.773438 C 344.636719 298.960938 344.9375 298.128906 345 297.273438 C 345.0625 296.414062 344.890625 295.589844 344.484375 294.792969 C 344.078125 294 343.449219 293.3125 342.585938 292.734375 L 331.355469 285.230469 L 333.347656 282.257812 L 344.597656 289.78125 C 345.960938 290.6875 346.972656 291.8125 347.625 293.148438 C 348.277344 294.484375 348.558594 295.894531 348.464844 297.378906 C 348.371094 298.863281 347.863281 300.296875 346.941406 301.675781 M 363.261719 269.859375 L 365.019531 265.707031 L 353.496094 269.136719 C 353.859375 268.097656 354.023438 267.09375 353.960938 266.128906 C 353.886719 264.96875 353.53125 263.945312 352.894531 263.058594 C 352.257812 262.167969 351.355469 261.480469 350.191406 260.984375 C 349.085938 260.515625 347.984375 260.359375 346.890625 260.515625 C 345.800781 260.675781 344.796875 261.121094 343.886719 261.863281 C 342.976562 262.605469 342.257812 263.605469 341.722656 264.867188 L 338.542969 272.375 L 358.605469 280.867188 L 360 277.570312 L 351.488281 273.96875 L 351.847656 273.117188 Z M 342.804688 270.292969 L 344.527344 266.222656 C 344.953125 265.210938 345.574219 264.550781 346.378906 264.238281 C 347.1875 263.925781 348.011719 263.945312 348.855469 264.304688 C 349.789062 264.699219 350.402344 265.289062 350.6875 266.078125 C 350.976562 266.863281 350.902344 267.761719 350.476562 268.773438 L 348.765625 272.816406 Z M 362.5625 239.644531 C 362.433594 240.296875 362.105469 240.789062 361.589844 241.117188 C 361.066406 241.449219 360.492188 241.550781 359.859375 241.429688 C 359.210938 241.296875 358.710938 240.984375 358.367188 240.480469 C 358.019531 239.980469 357.914062 239.402344 358.042969 238.753906 C 358.171875 238.101562 358.488281 237.609375 359 237.277344 C 359.511719 236.945312 360.089844 236.84375 360.742188 236.972656 C 361.375 237.097656 361.867188 237.410156 362.222656 237.914062 C 362.574219 238.414062 362.691406 238.992188 362.5625 239.644531 "/>
<path style=" stroke:none;fill-rule:nonzero;fill:rgb(7.206726%,20.443726%,20.835876%);fill-opacity:1;" d="M 675.328125 321.886719 C 671.160156 321.882812 665.660156 321.878906 658.59375 321.878906 L 658.800781 273.3125 L 672.621094 273.3125 C 677.683594 273.3125 682.730469 273.875 687.667969 274.996094 L 701.902344 278.222656 L 701.902344 262.796875 L 686.925781 265.929688 C 682.339844 266.890625 677.671875 267.371094 672.988281 267.371094 L 658.59375 267.371094 L 658.59375 226.074219 C 666.539062 226.074219 672.636719 226.09375 677.070312 226.109375 C 683.160156 226.132812 689.160156 227.539062 694.628906 230.222656 L 711.386719 238.445312 L 709.679688 219.738281 L 632.691406 219.738281 L 636.507812 222.394531 C 641.023438 225.539062 643.714844 230.691406 643.710938 236.191406 L 643.65625 312.546875 C 643.652344 318.019531 640.980469 323.148438 636.492188 326.289062 L 632.691406 328.953125 L 712.148438 328.953125 L 713.484375 309.429688 L 696.414062 317.277344 C 689.800781 320.320312 682.609375 321.894531 675.328125 321.886719 Z M 812.554688 279.859375 L 852.796875 279.859375 C 849.84375 267.941406 843.703125 259.203125 834.25 258.324219 C 833.730469 258.269531 833.203125 258.246094 832.675781 258.246094 C 822.535156 258.246094 815.675781 267.285156 812.554688 279.859375 Z M 811.3125 289.429688 C 811.308594 289.707031 811.308594 289.980469 811.308594 290.257812 C 811.308594 290.53125 811.308594 290.808594 811.3125 291.082031 C 811.320312 291.351562 811.324219 291.621094 811.335938 291.890625 C 812.015625 308.078125 822.074219 321.097656 835.421875 322.183594 C 836.019531 322.234375 836.625 322.257812 837.234375 322.257812 C 848.574219 322.257812 858.25 313.667969 862.039062 301.585938 L 869.101562 301.585938 C 864.929688 318.578125 850.535156 331.109375 833.417969 331.109375 C 813.035156 331.109375 794.171875 313.339844 794.171875 291.429688 C 794.171875 289.96875 794.25 288.523438 794.394531 287.105469 C 794.640625 284.613281 795.105469 282.191406 795.769531 279.859375 C 800.367188 263.585938 816.195312 251.742188 832.832031 251.742188 C 849.46875 251.742188 864.125 263.585938 868.726562 279.859375 C 869.390625 282.191406 869.851562 284.613281 870.097656 287.105469 L 811.429688 287.105469 C 811.425781 287.210938 811.414062 287.308594 811.40625 287.414062 L 811.390625 287.730469 C 811.371094 288 811.355469 288.277344 811.34375 288.546875 C 811.332031 288.839844 811.320312 289.132812 811.3125 289.429688 Z M 625.933594 196.597656 L 623.316406 198.765625 L 653.609375 198.765625 L 650.964844 196.597656 C 647.070312 193.410156 644.816406 188.644531 644.816406 183.609375 L 644.816406 146.664062 C 644.816406 131.917969 639.476562 121.511719 622.265625 121.511719 C 613.257812 121.511719 604.453125 125.515625 598.246094 133.117188 C 597.679688 129.085938 596.714844 121.511719 596.714844 121.511719 L 577.082031 129.917969 L 580.757812 133.609375 C 583.882812 136.757812 585.640625 141.015625 585.640625 145.449219 L 585.640625 183.789062 C 585.640625 188.71875 583.472656 193.398438 579.714844 196.589844 L 577.152344 198.765625 L 607.84375 198.765625 L 605.082031 196.667969 C 600.902344 193.492188 598.449219 188.546875 598.449219 183.296875 L 598.449219 143.167969 C 600.53125 138.996094 607.8125 131.90625 616.460938 131.90625 C 628.761719 131.90625 632.007812 137.980469 632.007812 149.054688 L 632.007812 183.671875 C 632.007812 188.671875 629.78125 193.40625 625.933594 196.597656 Z M 564.3125 244.707031 C 563.710938 247.707031 563.175781 250.710938 562.574219 253.773438 L 548.277344 253.773438 L 548.277344 261.089844 L 548.191406 261.429688 L 561.15625 261.429688 L 549.066406 325.300781 C 546.847656 336.988281 544.160156 347.0625 531.066406 361.902344 L 533.820312 364.1875 C 549.871094 354.71875 558.46875 344.441406 561.355469 329.464844 L 574.453125 261.429688 L 597.066406 261.261719 L 597.066406 253.773438 L 575.929688 253.773438 C 580.09375 232.214844 581.167969 214.953125 592.722656 214.953125 C 596.507812 214.953125 603.449219 217.203125 608.75 221.011719 L 613.90625 211.433594 C 611.46875 208.984375 604.609375 207.097656 600.175781 207.097656 C 582.378906 207.097656 568.539062 222.410156 564.3125 244.707031 Z M 1023.371094 268.390625 L 1021.828125 251.308594 L 1003.640625 259.71875 L 1007.128906 263.601562 C 1009.898438 266.683594 1011.429688 270.679688 1011.429688 274.820312 L 1011.429688 313.589844 C 1011.429688 318.519531 1009.261719 323.199219 1005.5 326.390625 L 1002.941406 328.566406 L 1034.578125 328.566406 L 1031.429688 326.371094 C 1026.921875 323.230469 1024.238281 318.085938 1024.238281 312.59375 L 1024.238281 276.21875 C 1037.710938 263.390625 1054.050781 267.957031 1054.050781 267.957031 L 1054.050781 250.675781 C 1031.730469 250.675781 1023.371094 268.390625 1023.371094 268.390625 Z M 529.011719 273.179688 C 529.011719 263.171875 525.949219 257.566406 516.066406 257.632812 C 497.316406 257.765625 483.667969 284.855469 483.667969 308.804688 C 483.667969 318.808594 486.726562 324.414062 496.609375 324.347656 C 515.359375 324.214844 529.011719 297.128906 529.011719 273.179688 Z M 544.070312 280.648438 C 544.070312 306.734375 523.128906 330.285156 496.453125 330.285156 C 478.253906 330.285156 468.605469 320.8125 468.605469 301.332031 C 468.605469 275.246094 489.550781 251.695312 516.222656 251.695312 C 534.425781 251.695312 544.070312 261.171875 544.070312 280.648438 Z M 898.089844 310.007812 L 898.089844 262.109375 L 917.339844 262.109375 L 917.339844 254.019531 L 898.089844 254.019531 L 898.089844 227.207031 L 885.015625 238.757812 L 885.015625 254.019531 L 872.339844 254.019531 L 872.339844 262.109375 L 885.015625 262.109375 L 885.015625 314.078125 C 885.015625 322.21875 889.152344 330.625 902.894531 330.625 C 909.164062 330.625 916.234375 328.355469 922.039062 323.683594 L 920.707031 319.949219 C 904.296875 323.753906 898.089844 321.015625 898.089844 310.007812 Z M 1105.089844 123.714844 L 1105.171875 123.789062 C 1109.941406 128.152344 1111.640625 134.941406 1109.488281 141.035156 C 1105.25 153.074219 1094.609375 183.621094 1093.609375 187.15625 C 1092.679688 183.757812 1077.378906 141.800781 1077.378906 141.800781 C 1075 135.332031 1076.988281 128.0625 1082.339844 123.714844 L 1053.820312 123.609375 L 1053.789062 123.59375 L 1030.769531 123.59375 L 1030.769531 96.75 L 1017.699219 108.300781 L 1017.699219 123.59375 L 1005.019531 123.59375 L 1005.019531 131.519531 L 1017.699219 131.519531 L 1017.699219 183.621094 C 1017.699219 191.761719 1021.839844 200.167969 1035.578125 200.167969 C 1041.851562 200.167969 1048.921875 197.898438 1054.71875 193.226562 L 1053.390625 189.492188 C 1036.980469 193.296875 1030.769531 190.5625 1030.769531 179.550781 L 1030.769531 131.519531 L 1059.191406 131.519531 L 1084.511719 198.765625 L 1089.339844 198.765625 C 1089.339844 198.765625 1079.28125 221.003906 1063.070312 221.003906 L 1069.300781 231.976562 C 1084.230469 227.703125 1094.039062 205.464844 1102.621094 182.621094 L 1119.871094 136.578125 C 1121.25 132.902344 1123.46875 129.597656 1126.351562 126.929688 L 1129.828125 123.714844 Z M 939.738281 279.859375 L 979.980469 279.859375 C 977.03125 267.941406 970.890625 259.203125 961.433594 258.324219 C 960.914062 258.269531 960.386719 258.246094 959.855469 258.246094 C 949.71875 258.246094 942.855469 267.285156 939.738281 279.859375 Z M 938.496094 289.429688 C 938.492188 289.707031 938.492188 289.980469 938.492188 290.257812 C 938.492188 290.53125 938.492188 290.808594 938.496094 291.082031 C 938.503906 291.351562 938.507812 291.621094 938.519531 291.890625 C 939.199219 308.078125 949.257812 321.097656 962.605469 322.183594 C 963.203125 322.234375 963.804688 322.257812 964.414062 322.257812 C 975.761719 322.257812 985.429688 313.667969 989.21875 301.585938 L 996.28125 301.585938 C 992.109375 318.578125 977.71875 331.109375 960.601562 331.109375 C 940.21875 331.109375 921.355469 313.339844 921.355469 291.429688 C 921.355469 289.96875 921.429688 288.523438 921.578125 287.105469 C 921.824219 284.613281 922.285156 282.191406 922.949219 279.859375 C 927.550781 263.585938 943.378906 251.742188 960.015625 251.742188 C 976.648438 251.742188 991.308594 263.585938 995.910156 279.859375 C 996.570312 282.191406 997.03125 284.613281 997.28125 287.105469 L 938.613281 287.105469 C 938.609375 287.210938 938.597656 287.308594 938.589844 287.414062 L 938.574219 287.730469 C 938.554688 288 938.535156 288.277344 938.523438 288.546875 C 938.515625 288.839844 938.503906 289.132812 938.496094 289.429688 Z M 992.050781 183.277344 L 992.050781 121.511719 L 970.679688 129.917969 L 974.121094 133.238281 C 977.390625 136.402344 979.238281 140.761719 979.238281 145.3125 L 979.238281 183.789062 C 979.238281 188.71875 977.070312 193.398438 973.308594 196.589844 L 970.75 198.765625 L 1001.441406 198.765625 L 998.621094 196.601562 C 994.480469 193.425781 992.050781 188.5 992.050781 183.277344 Z M 779.558594 311.542969 L 763.640625 288.65625 L 779.386719 269.152344 C 783.488281 264.074219 788.171875 259.488281 793.335938 255.492188 L 795.328125 253.929688 L 768.226562 253.898438 C 772.902344 257.886719 773.671875 264.816406 769.996094 269.738281 C 766.472656 274.453125 762.945312 279.152344 759.4375 283.851562 L 749.558594 269.242188 C 746.339844 264.480469 747.070312 258.085938 751.28125 254.175781 L 751.582031 253.898438 L 718.066406 253.898438 L 718.609375 254.28125 C 724.875 258.703125 730.308594 264.203125 734.652344 270.523438 L 750.699219 293.859375 L 734.964844 313.871094 C 730.75 319.234375 725.894531 324.0625 720.511719 328.253906 L 719.609375 328.953125 L 746.648438 328.953125 L 746.570312 328.894531 C 741.492188 325.035156 740.460938 317.816406 744.25 312.691406 C 747.746094 307.964844 751.257812 303.226562 754.769531 298.464844 L 765.554688 314.019531 C 768.742188 318.617188 768.210938 324.832031 764.285156 328.824219 L 764.160156 328.953125 L 797.546875 328.953125 L 797.40625 328.863281 C 790.398438 324.296875 784.335938 318.414062 779.558594 311.542969 Z M 852.636719 196.589844 L 850.070312 198.765625 L 881.714844 198.765625 L 878.566406 196.570312 C 874.054688 193.433594 871.371094 188.285156 871.371094 182.792969 L 871.371094 146.417969 C 884.84375 133.59375 901.183594 138.15625 901.183594 138.15625 L 901.183594 120.878906 C 878.859375 120.878906 870.503906 138.589844 870.503906 138.589844 L 868.96875 121.511719 L 850.777344 129.917969 L 854.265625 133.804688 C 857.03125 136.886719 858.5625 140.878906 858.5625 145.019531 L 858.5625 183.789062 C 858.5625 188.71875 856.394531 193.398438 852.636719 196.589844 Z M 788.796875 149.769531 L 829.035156 149.769531 C 826.085938 137.851562 819.941406 129.113281 810.488281 128.234375 C 809.96875 128.179688 809.441406 128.15625 808.914062 128.15625 C 798.773438 128.15625 791.910156 137.191406 788.796875 149.769531 Z M 772.003906 149.769531 C 776.605469 133.496094 792.433594 121.652344 809.070312 121.652344 C 825.707031 121.652344 840.363281 133.496094 844.964844 149.769531 C 845.628906 152.101562 846.089844 154.523438 846.335938 157.011719 L 787.671875 157.011719 C 787.664062 157.117188 787.652344 157.21875 787.648438 157.324219 L 787.628906 157.640625 C 787.609375 157.910156 787.59375 158.183594 787.582031 158.453125 C 787.570312 158.746094 787.558594 159.039062 787.550781 159.339844 C 787.546875 159.613281 787.546875 159.890625 787.546875 160.164062 C 787.546875 160.441406 787.546875 160.714844 787.550781 160.992188 C 787.558594 161.261719 787.5625 161.53125 787.574219 161.800781 C 788.257812 177.984375 798.3125 191.007812 811.660156 192.09375 C 812.257812 192.144531 812.863281 192.167969 813.472656 192.167969 C 824.8125 192.167969 834.488281 183.578125 838.277344 171.492188 L 845.339844 171.492188 C 841.167969 188.488281 826.773438 201.015625 809.65625 201.015625 C 789.273438 201.015625 770.410156 183.25 770.410156 161.335938 C 770.410156 159.878906 770.488281 158.429688 770.632812 157.011719 C 770.878906 154.523438 771.34375 152.101562 772.003906 149.769531 Z M 985.640625 112.972656 C 990.429688 112.972656 994.308594 109.089844 994.308594 104.300781 C 994.308594 99.511719 990.429688 95.628906 985.640625 95.628906 C 980.851562 95.628906 976.96875 99.511719 976.96875 104.300781 C 976.96875 109.089844 980.851562 112.972656 985.640625 112.972656 Z M 706.730469 142.480469 L 728.347656 198.765625 C 728.464844 198.78125 738.304688 198.78125 738.421875 198.765625 L 760.933594 142.320312 C 762.425781 138.574219 764.449219 135.089844 766.910156 131.960938 C 769.378906 128.820312 772.289062 126.050781 775.582031 123.714844 L 751.015625 123.714844 L 751.066406 123.773438 C 754.367188 128.179688 755.1875 133.972656 753.242188 139.121094 L 738.886719 177.152344 C 737.953125 179.554688 737.222656 181.886719 736.484375 184.222656 C 735.820312 181.886719 735.082031 179.554688 734.148438 177.152344 L 719.480469 139.171875 C 718.761719 137.289062 718.398438 135.324219 718.398438 133.371094 C 718.398438 129.933594 719.5 126.542969 721.613281 123.714844 L 692.054688 123.714844 C 698.703125 128.367188 703.816406 134.898438 706.730469 142.480469 Z M 935.390625 194.214844 C 927.519531 194.214844 918.410156 185.898438 915.558594 179.414062 L 906.152344 190.445312 C 910.863281 196.410156 924.273438 201.101562 933.277344 201.101562 C 951.410156 201.101562 963.96875 192.234375 963.96875 177.863281 C 963.96875 165.976562 957.1875 160.804688 945.835938 156.234375 L 938.046875 153.078125 C 928.84375 149.386719 922.261719 145.625 922.261719 138.503906 C 922.261719 131.386719 927.601562 128.019531 934.988281 128.0625 C 947.367188 128.128906 953.574219 141.0625 953.574219 141.0625 C 956.257812 135.917969 957.488281 133.683594 960.617188 127.867188 C 954.9375 124.890625 946.109375 121.175781 936.871094 121.175781 C 920.238281 121.175781 909.46875 129.371094 909.46875 142.667969 C 909.46875 155.902344 919.609375 160.804688 929.214844 164.695312 L 937.273438 167.988281 C 944.796875 171.078125 950.203125 174.101562 950.203125 181.488281 C 950.203125 190.152344 944.328125 194.214844 935.390625 194.214844 Z M 670.539062 145.3125 L 670.539062 183.789062 C 670.539062 188.71875 668.371094 193.398438 664.613281 196.589844 L 662.050781 198.765625 L 692.742188 198.765625 L 689.921875 196.601562 C 685.777344 193.425781 683.347656 188.5 683.347656 183.277344 L 683.347656 121.511719 L 661.980469 129.917969 L 665.417969 133.238281 C 668.691406 136.402344 670.539062 140.761719 670.539062 145.3125 Z M 480.050781 105.9375 L 480.050781 159.804688 C 480.050781 186.359375 494.929688 200.902344 521.347656 200.902344 C 548.164062 200.902344 563.109375 186.425781 563.109375 159.207031 L 563.109375 106.015625 C 563.109375 100.511719 565.808594 95.355469 570.332031 92.21875 L 574.171875 89.554688 L 542.339844 89.554688 L 546.703125 92.292969 C 551.597656 95.363281 554.570312 100.734375 554.570312 106.515625 L 554.570312 156.335938 C 554.570312 167.878906 554.570312 192.894531 525.214844 192.894531 C 498.328125 192.894531 494.929688 172.816406 494.929688 156.335938 L 494.929688 105.921875 C 494.929688 100.46875 497.574219 95.355469 502.027344 92.210938 L 505.785156 89.554688 L 469.160156 89.554688 L 472.929688 92.210938 C 477.394531 95.355469 480.050781 100.476562 480.050781 105.9375 Z M 668.269531 104.300781 C 668.269531 99.511719 672.152344 95.628906 676.941406 95.628906 C 681.734375 95.628906 685.617188 99.511719 685.617188 104.300781 C 685.617188 109.089844 681.734375 112.972656 676.941406 112.972656 C 672.152344 112.972656 668.269531 109.089844 668.269531 104.300781 "/>
</g>
</svg>
